<svg xmlns="http://www.w3.org/2000/svg" width="14.59" height="14.59" viewBox="0 0 14.59 14.59">
  <g id="return-box" transform="translate(0 -0.12)">
    <path id="Path_40222" data-name="Path 40222" d="M14.02,8.038a.57.57,0,0,1-.57-.57A6.086,6.086,0,0,0,3,3.131a.57.57,0,1,1-.821-.791A7.172,7.172,0,0,1,14.022,4.634a7.323,7.323,0,0,1,.568,2.834.57.57,0,0,1-.57.57ZM3.9,4.76a.57.57,0,0,0-.57-.57H1.711a.571.571,0,0,1-.57-.57V1.995a.57.57,0,0,0-1.14,0V3.62a1.712,1.712,0,0,0,1.71,1.71H3.335A.57.57,0,0,0,3.9,4.76Zm6.186,9.345a7.287,7.287,0,0,0,2.317-1.624.57.57,0,1,0-.821-.791A6.086,6.086,0,0,1,1.141,7.354a.57.57,0,1,0-1.14,0,7.361,7.361,0,0,0,7.238,7.355A7.018,7.018,0,0,0,10.09,14.105Zm4.5-1.278V11.2a1.712,1.712,0,0,0-1.71-1.71H11.256a.57.57,0,0,0,0,1.14h1.624a.571.571,0,0,1,.57.57v1.625a.57.57,0,1,0,1.14,0Z" transform="translate(0 0)" fill="#aba5a2"/>
    <path id="Path_40223" data-name="Path 40223" d="M142.752,159.75h-2.736a2,2,0,0,1-1.995-2v-1.882a2,2,0,0,1,1.995-2h2.736a2,2,0,0,1,1.995,2v1.882A2,2,0,0,1,142.752,159.75Zm-2.736-4.732a.856.856,0,0,0-.855.855v1.882a.856.856,0,0,0,.855.855h2.736a.856.856,0,0,0,.855-.855v-1.882a.856.856,0,0,0-.855-.855Zm2.394,1.539a.57.57,0,0,0-.57-.57h-.912a.57.57,0,0,0,0,1.14h.912A.57.57,0,0,0,142.41,156.557Z" transform="translate(-134.089 -149.374)" fill="#aba5a2"/>
  </g>
</svg>
